<?xml version="1.0" encoding="UTF-8"?>
<svg xmlns="http://www.w3.org/2000/svg" xmlns:xlink="http://www.w3.org/1999/xlink" version="1.1" viewBox="0 0 167 167.4">
<style type="text/css">
	.st0{fill:url(#SVGID_1_);}
	.st1{fill:#FFFFFF;}
</style>
<linearGradient id="SVGID_1_" gradientUnits="userSpaceOnUse" x1="41.081" y1="126.0113" x2="126.736" y2="40.5015">
	<stop offset="0" style="stop-color:#1A98FF"></stop>
	<stop offset="1" style="stop-color:#26C2DE"></stop>
</linearGradient>
<path class="st0" d="M83.5,167.4L83.5,167.4C37.4,167.4,0,130,0,83.9v-0.4C0,37.4,37.4,0,83.5,0h0C129.6,0,167,37.4,167,83.5v0.4  C167,130,129.6,167.4,83.5,167.4z"></path>
<path class="st1" d="M127.5,105.3c0,0.3,0,0.5,0,0.8c-0.2,3.9-2,7.6-4.9,10.2c-0.1,0.1-0.3,0.3-0.5,0.4c-2.1,1.7-4.6,2.9-7.4,3.2  c-0.6,0.1-1.3,0.1-1.9,0.1h0c-5.2,0-9.7-2.7-12.3-6.8c0,0,0,0,0,0l-0.7-1.2l-3.6-6.2c-5.6-9.8-19.8-9.8-25.4,0l-3.6,6.2l-0.7,1.2  c0,0,0,0,0,0c-2.6,4.1-7.2,6.8-12.3,6.8h0c-0.7,0-1.3,0-1.9-0.1c-2.5-0.3-4.9-1.3-6.8-2.8c-0.2-0.1-0.3-0.2-0.5-0.4  c-3.5-2.9-5.6-7.3-5.4-11.9v0c0-0.1,0-0.3,0-0.4c0.1-2.1,0.8-4.3,2-6.4l0.4-0.7l28.9-50.2c5.7-9.8,19.8-9.8,25.4,0l29,50.3l0.4,0.7  c0.9,1.6,1.5,3.3,1.8,5c0,0.1,0,0.3,0.1,0.5v0c0,0.2,0,0.3,0,0.5c0,0.1,0,0.2,0,0.3c0,0.1,0,0.2,0,0.3c0,0.1,0,0.2,0,0.4  C127.5,105.1,127.5,105.2,127.5,105.3z"></path>
</svg>
