<?xml version="1.0" encoding="UTF-8"?>
<svg xmlns="http://www.w3.org/2000/svg" version="1.1" viewBox="205 39 295 81">
<style type="text/css">
	.st1{fill:#FFFFFF;}
</style>
<g>
	<path class="st1" d="M280.8,117c-3.7,0.8-7.6,1.4-11.5,1.4   c-2.2,0-4.4-0.2-6.6-0.6l-5.5-15.2h-28.6l-5.5,15.2c-2.7,0.3-5.4,0.5-8.2,0.5c-3.5,0-6.8-0.4-9.5-1.3l28.8-76.2   c3-0.6,6.2-0.7,9.2-0.7c3.1,0,5.8,0.1,8.8,0.7L280.8,117z M251.6,87.7L245.1,70l-2.4-7.4l-2.2,7.4l-6.5,17.8L251.6,87.7z"></path>
	<path class="st1" d="M356.1,96.5c0,14.3-9.8,23.5-33.5,23.5   c-9.6,0-18.5-0.8-25.4-2.2V42.1c7-1.4,16-2.4,25-2.4c22,0,30.6,8.4,30.6,22.1c0,9.1-4,14-10,16.7C350.8,81.4,356.1,87.1,356.1,96.5    M315,54.5v17.4h9.1c8,0,11-3.2,11-9.2c0-5.3-3.8-8.5-11.8-8.5C320.9,54.1,318,54.3,315,54.5 M338,95.5c0-6-4.2-9.6-12.8-9.6H315   v19.3c3,0.3,6,0.4,9.4,0.4C333.9,105.6,338,102.3,338,95.5"></path>
	<path class="st1" d="M429,109.8c0,2.7-0.3,5.4-0.8,8h-52.1   v-77H427c0.7,2.5,1,5.4,1,8c0,2.7-0.3,5.3-1,7.9h-33v13.9h29.4c0.6,2.6,0.9,5.3,0.8,7.9c0,2.6-0.3,5.2-0.8,7.8H394v15.5h34.2   C428.7,104.5,429,107.2,429,109.8"></path>
	<path class="st1" d="M500,109.8c0,2.7-0.3,5.4-0.8,8h-49.6   v-77c2.9-0.5,5.9-0.8,8.9-0.8c3,0,6,0.3,9,0.8v61h31.7C499.7,104.4,500,107.1,500,109.8"></path>
</g>
</svg>
