<?xml version="1.0" encoding="UTF-8"?>
<!-- Generator: Adobe Illustrator 28.0.0, SVG Export Plug-In . SVG Version: 6.00 Build 0)  -->
<svg xmlns="http://www.w3.org/2000/svg" xmlns:xlink="http://www.w3.org/1999/xlink" version="1.1" id="Layer_1" x="0px" y="0px" viewBox="0 0 500 167.4" style="enable-background:new 0 0 500 167.4;" xml:space="preserve">
<style type="text/css">
	.st0{fill:url(#SVGID_1_);}
	.st1{fill:#FFFFFF;}
</style>
<g id="Layer_2_00000110467598938691755350000014699717281203078292_">
</g>
<linearGradient id="SVGID_1_" gradientUnits="userSpaceOnUse" x1="41.081" y1="126.0113" x2="126.736" y2="40.5015">
	<stop offset="0" style="stop-color:#1A98FF"></stop>
	<stop offset="1" style="stop-color:#26C2DE"></stop>
</linearGradient>
<path class="st0" d="M83.5,167.4L83.5,167.4C37.4,167.4,0,130,0,83.9v-0.4C0,37.4,37.4,0,83.5,0h0C129.6,0,167,37.4,167,83.5v0.4  C167,130,129.6,167.4,83.5,167.4z"></path>
<path class="st1" d="M127.5,105.3c0,0.3,0,0.5,0,0.8c-0.2,3.9-2,7.6-4.9,10.2c-0.1,0.1-0.3,0.3-0.5,0.4c-2.1,1.7-4.6,2.9-7.4,3.2  c-0.6,0.1-1.3,0.1-1.9,0.1h0c-5.2,0-9.7-2.7-12.3-6.8c0,0,0,0,0,0l-0.7-1.2l-3.6-6.2c-5.6-9.8-19.8-9.8-25.4,0l-3.6,6.2l-0.7,1.2  c0,0,0,0,0,0c-2.6,4.1-7.2,6.8-12.3,6.8h0c-0.7,0-1.3,0-1.9-0.1c-2.5-0.3-4.9-1.3-6.8-2.8c-0.2-0.1-0.3-0.2-0.5-0.4  c-3.5-2.9-5.6-7.3-5.4-11.9v0c0-0.1,0-0.3,0-0.4c0.1-2.1,0.8-4.3,2-6.4l0.4-0.7l28.9-50.2c5.7-9.8,19.8-9.8,25.4,0l29,50.3l0.4,0.7  c0.9,1.6,1.5,3.3,1.8,5c0,0.1,0,0.3,0.1,0.5v0c0,0.2,0,0.3,0,0.5c0,0.1,0,0.2,0,0.3c0,0.1,0,0.2,0,0.3c0,0.1,0,0.2,0,0.4  C127.5,105.1,127.5,105.2,127.5,105.3z"></path>
<g>
	<path id="Path_22435_00000121990495546947190680000017675166343634869661_" class="st1" d="M280.8,117c-3.7,0.8-7.6,1.4-11.5,1.4   c-2.2,0-4.4-0.2-6.6-0.6l-5.5-15.2h-28.6l-5.5,15.2c-2.7,0.3-5.4,0.5-8.2,0.5c-3.5,0-6.8-0.4-9.5-1.3l28.8-76.2   c3-0.6,6.2-0.7,9.2-0.7c3.1,0,5.8,0.1,8.8,0.7L280.8,117z M251.6,87.7L245.1,70l-2.4-7.4l-2.2,7.4l-6.5,17.8L251.6,87.7z"></path>
	<path id="Path_22436_00000155128653962710884130000001686244109346826407_" class="st1" d="M356.1,96.5c0,14.3-9.8,23.5-33.5,23.5   c-9.6,0-18.5-0.8-25.4-2.2V42.1c7-1.4,16-2.4,25-2.4c22,0,30.6,8.4,30.6,22.1c0,9.1-4,14-10,16.7C350.8,81.4,356.1,87.1,356.1,96.5    M315,54.5v17.4h9.1c8,0,11-3.2,11-9.2c0-5.3-3.8-8.5-11.8-8.5C320.9,54.1,318,54.3,315,54.5 M338,95.5c0-6-4.2-9.6-12.8-9.6H315   v19.3c3,0.3,6,0.4,9.4,0.4C333.9,105.6,338,102.3,338,95.5"></path>
	<path id="Path_22437_00000047049329012415402250000008975417944789046159_" class="st1" d="M429,109.8c0,2.7-0.3,5.4-0.8,8h-52.1   v-77H427c0.7,2.5,1,5.4,1,8c0,2.7-0.3,5.3-1,7.9h-33v13.9h29.4c0.6,2.6,0.9,5.3,0.8,7.9c0,2.6-0.3,5.2-0.8,7.8H394v15.5h34.2   C428.7,104.5,429,107.2,429,109.8"></path>
	<path id="Path_22438_00000032633908843545560600000012466984995841509254_" class="st1" d="M500,109.8c0,2.7-0.3,5.4-0.8,8h-49.6   v-77c2.9-0.5,5.9-0.8,8.9-0.8c3,0,6,0.3,9,0.8v61h31.7C499.7,104.4,500,107.1,500,109.8"></path>
</g>
</svg>
