<svg width="447" height="145" viewBox="0 0 447 145" fill="none" xmlns="http://www.w3.org/2000/svg">
<rect x="0.75" y="0.75" width="445.5" height="143.5" rx="16.75" fill="url(#paint0_linear_115_427)"/>
<rect x="0.75" y="0.75" width="445.5" height="143.5" rx="16.75" stroke="#8C50F6" stroke-width="1.5" stroke-dasharray="6 4"/>
<path d="M70.8291 32.501C71.5029 32.501 72.1445 32.627 72.7539 32.8789C73.3633 33.1309 73.9023 33.5176 74.3711 34.0391C74.8457 34.5605 75.2178 35.2314 75.4873 36.0518C75.7568 36.8721 75.8916 37.8535 75.8916 38.9961V39.0137C75.8916 40.4375 75.6865 41.6562 75.2764 42.6699C74.8662 43.6836 74.2803 44.46 73.5186 44.999C72.7568 45.5381 71.8428 45.8076 70.7764 45.8076C69.9971 45.8076 69.2939 45.667 68.667 45.3857C68.0459 45.0986 67.5303 44.7061 67.1201 44.208C66.71 43.71 66.4375 43.1387 66.3027 42.4941L66.2852 42.3975H68.5088L68.5439 42.4766C68.6553 42.7754 68.8135 43.0361 69.0186 43.2588C69.2295 43.4756 69.4814 43.6455 69.7744 43.7686C70.0732 43.8916 70.4072 43.9531 70.7764 43.9531C71.4502 43.9531 71.998 43.7568 72.4199 43.3643C72.8477 42.9658 73.167 42.4355 73.3779 41.7734C73.5889 41.1055 73.709 40.3672 73.7383 39.5586C73.7441 39.4707 73.7471 39.3857 73.7471 39.3037C73.7471 39.2158 73.7471 39.1309 73.7471 39.0488L73.3516 36.9395C73.3516 36.4531 73.2402 36.0166 73.0176 35.6299C72.7949 35.2373 72.4932 34.9268 72.1123 34.6982C71.7373 34.4639 71.3154 34.3467 70.8467 34.3467C70.3838 34.3467 69.9619 34.4609 69.5811 34.6895C69.2002 34.9121 68.8955 35.2139 68.667 35.5947C68.4385 35.9756 68.3242 36.4062 68.3242 36.8867V36.9043C68.3242 37.3906 68.4326 37.8242 68.6494 38.2051C68.8662 38.5801 69.1621 38.876 69.5371 39.0928C69.918 39.3096 70.3457 39.418 70.8203 39.418C71.3008 39.418 71.7314 39.3125 72.1123 39.1016C72.4932 38.8848 72.7949 38.5918 73.0176 38.2227C73.2402 37.8535 73.3516 37.4287 73.3516 36.9482V36.9395H73.8789V39.2598H73.5801C73.4277 39.5938 73.2021 39.9072 72.9033 40.2002C72.6045 40.4873 72.2354 40.7188 71.7959 40.8945C71.3564 41.0703 70.8438 41.1582 70.2578 41.1582C69.4492 41.1582 68.7314 40.9766 68.1045 40.6133C67.4834 40.25 66.9971 39.752 66.6455 39.1191C66.2939 38.4863 66.1182 37.7715 66.1182 36.9746V36.957C66.1182 36.1016 66.3174 35.3369 66.7158 34.6631C67.1201 33.9893 67.6768 33.4619 68.3857 33.0811C69.1006 32.6943 69.915 32.501 70.8291 32.501ZM79.3115 43.7949C78.9189 43.7949 78.5879 43.6631 78.3184 43.3994C78.0547 43.1299 77.9229 42.8018 77.9229 42.415C77.9229 42.0283 78.0547 41.7031 78.3184 41.4395C78.5879 41.1699 78.9189 41.0352 79.3115 41.0352C79.7158 41.0352 80.0498 41.1699 80.3135 41.4395C80.5771 41.7031 80.709 42.0283 80.709 42.415C80.709 42.8018 80.5771 43.1299 80.3135 43.3994C80.0498 43.6631 79.7158 43.7949 79.3115 43.7949ZM79.3115 37.2734C78.9189 37.2734 78.5879 37.1416 78.3184 36.8779C78.0547 36.6084 77.9229 36.2803 77.9229 35.8936C77.9229 35.5068 78.0547 35.1816 78.3184 34.918C78.5879 34.6484 78.9189 34.5137 79.3115 34.5137C79.7158 34.5137 80.0498 34.6484 80.3135 34.918C80.5771 35.1816 80.709 35.5068 80.709 35.8936C80.709 36.2803 80.5771 36.6084 80.3135 36.8779C80.0498 37.1416 79.7158 37.2734 79.3115 37.2734ZM88.9189 45.5V43.0654H82.7139V41.2109C83.042 40.6367 83.376 40.0654 83.7158 39.4971C84.0557 38.9229 84.3984 38.3516 84.7441 37.7832C85.0957 37.209 85.4443 36.6436 85.79 36.0869C86.1416 35.5244 86.4902 34.9707 86.8359 34.4258C87.1875 33.8809 87.5361 33.3447 87.8818 32.8174H91.0811V41.1934H92.7949V43.0654H91.0811V45.5H88.9189ZM84.8145 41.2461H88.9541V34.6279H88.8311C88.5674 35.0264 88.2979 35.4365 88.0225 35.8584C87.7529 36.2803 87.4805 36.7109 87.2051 37.1504C86.9297 37.5898 86.6543 38.0322 86.3789 38.4775C86.1094 38.9229 85.8428 39.3682 85.5791 39.8135C85.3154 40.2529 85.0605 40.6895 84.8145 41.123V41.2461ZM97.5332 45.5V35.0498H97.3838L94.2285 37.2734V35.1465L97.542 32.8174H99.792V45.5H97.5332Z" fill="black"/>
<path fill-rule="evenodd" clip-rule="evenodd" d="M338.224 32.1249H336.883C336.142 32.1249 335.541 32.7041 335.541 33.4186V44.6311C335.541 45.3456 336.142 45.9248 336.883 45.9248H338.224C338.965 45.9248 339.566 45.3456 339.566 44.6311V33.4186C339.566 32.7041 338.965 32.1249 338.224 32.1249ZM330.569 35.1438H331.91C332.651 35.1438 333.252 35.723 333.252 36.4375V44.6312C333.252 45.3458 332.651 45.925 331.91 45.925H330.569C329.828 45.925 329.227 45.3458 329.227 44.6312V36.4375C329.227 35.723 329.828 35.1438 330.569 35.1438ZM325.597 38.1623H324.255C323.514 38.1623 322.913 38.7415 322.913 39.456V44.631C322.913 45.3455 323.514 45.9247 324.255 45.9247H325.597C326.338 45.9247 326.938 45.3455 326.938 44.631V39.456C326.938 38.7415 326.338 38.1623 325.597 38.1623ZM319.283 40.7497H317.941C317.2 40.7497 316.6 41.3289 316.6 42.0435V44.631C316.6 45.3455 317.2 45.9247 317.941 45.9247H319.283C320.024 45.9247 320.625 45.3455 320.625 44.631V42.0435C320.625 41.3289 320.024 40.7497 319.283 40.7497Z" fill="black"/>
<path fill-rule="evenodd" clip-rule="evenodd" d="M356.341 34.8228C359.178 34.8229 361.906 35.9391 363.962 37.9406C364.117 38.0951 364.364 38.0932 364.517 37.9362L365.996 36.4068C366.073 36.3272 366.117 36.2194 366.116 36.1072C366.115 35.995 366.071 35.8877 365.993 35.8091C360.597 30.5135 352.085 30.5135 346.689 35.8091C346.611 35.8877 346.567 35.9949 346.566 36.1071C346.565 36.2193 346.608 36.3272 346.685 36.4068L348.166 37.9362C348.318 38.0934 348.566 38.0954 348.72 37.9406C350.776 35.939 353.505 34.8228 356.341 34.8228ZM356.341 39.7985C357.9 39.7984 359.403 40.3916 360.558 41.4629C360.714 41.6149 360.96 41.6117 361.113 41.4555L362.591 39.9261C362.669 39.8459 362.712 39.737 362.711 39.6239C362.71 39.5109 362.664 39.4029 362.585 39.3244C359.067 35.9732 353.619 35.9732 350.101 39.3244C350.022 39.4029 349.976 39.5109 349.975 39.624C349.974 39.7372 350.017 39.846 350.095 39.9261L351.573 41.4555C351.725 41.6117 351.972 41.6149 352.128 41.4629C353.282 40.3923 354.784 39.7991 356.341 39.7985ZM359.302 43.1465C359.305 43.2599 359.261 43.3692 359.182 43.4487L356.625 46.0911C356.55 46.1687 356.448 46.2124 356.341 46.2124C356.235 46.2124 356.133 46.1687 356.058 46.0911L353.5 43.4487C353.421 43.3692 353.378 43.2598 353.38 43.1464C353.383 43.033 353.431 42.9256 353.513 42.8496C355.146 41.4353 357.537 41.4353 359.17 42.8496C359.252 42.9257 359.3 43.0331 359.302 43.1465Z" fill="black"/>
<rect opacity="0.4" x="373.691" y="32.1249" width="27.6" height="13.8" rx="4.025" stroke="black" stroke-width="1.15"/>
<path opacity="0.5" d="M403.016 36.7249V41.3249C403.943 40.9353 404.545 40.029 404.545 39.0249C404.545 38.0208 403.943 37.1145 403.016 36.7249Z" fill="black"/>
<rect x="375.416" y="33.8499" width="19.55" height="10.35" rx="2.3" fill="black"/>
<path d="M70.8291 103.501C71.5029 103.501 72.1445 103.627 72.7539 103.879C73.3633 104.131 73.9023 104.518 74.3711 105.039C74.8457 105.561 75.2178 106.231 75.4873 107.052C75.7568 107.872 75.8916 108.854 75.8916 109.996V110.014C75.8916 111.438 75.6865 112.656 75.2764 113.67C74.8662 114.684 74.2803 115.46 73.5186 115.999C72.7568 116.538 71.8428 116.808 70.7764 116.808C69.9971 116.808 69.2939 116.667 68.667 116.386C68.0459 116.099 67.5303 115.706 67.1201 115.208C66.71 114.71 66.4375 114.139 66.3027 113.494L66.2852 113.397H68.5088L68.5439 113.477C68.6553 113.775 68.8135 114.036 69.0186 114.259C69.2295 114.476 69.4814 114.646 69.7744 114.769C70.0732 114.892 70.4072 114.953 70.7764 114.953C71.4502 114.953 71.998 114.757 72.4199 114.364C72.8477 113.966 73.167 113.436 73.3779 112.773C73.5889 112.105 73.709 111.367 73.7383 110.559C73.7441 110.471 73.7471 110.386 73.7471 110.304C73.7471 110.216 73.7471 110.131 73.7471 110.049L73.3516 107.939C73.3516 107.453 73.2402 107.017 73.0176 106.63C72.7949 106.237 72.4932 105.927 72.1123 105.698C71.7373 105.464 71.3154 105.347 70.8467 105.347C70.3838 105.347 69.9619 105.461 69.5811 105.689C69.2002 105.912 68.8955 106.214 68.667 106.595C68.4385 106.976 68.3242 107.406 68.3242 107.887V107.904C68.3242 108.391 68.4326 108.824 68.6494 109.205C68.8662 109.58 69.1621 109.876 69.5371 110.093C69.918 110.31 70.3457 110.418 70.8203 110.418C71.3008 110.418 71.7314 110.312 72.1123 110.102C72.4932 109.885 72.7949 109.592 73.0176 109.223C73.2402 108.854 73.3516 108.429 73.3516 107.948V107.939H73.8789V110.26H73.5801C73.4277 110.594 73.2021 110.907 72.9033 111.2C72.6045 111.487 72.2354 111.719 71.7959 111.895C71.3564 112.07 70.8438 112.158 70.2578 112.158C69.4492 112.158 68.7314 111.977 68.1045 111.613C67.4834 111.25 66.9971 110.752 66.6455 110.119C66.2939 109.486 66.1182 108.771 66.1182 107.975V107.957C66.1182 107.102 66.3174 106.337 66.7158 105.663C67.1201 104.989 67.6768 104.462 68.3857 104.081C69.1006 103.694 69.915 103.501 70.8291 103.501ZM79.3115 114.795C78.9189 114.795 78.5879 114.663 78.3184 114.399C78.0547 114.13 77.9229 113.802 77.9229 113.415C77.9229 113.028 78.0547 112.703 78.3184 112.439C78.5879 112.17 78.9189 112.035 79.3115 112.035C79.7158 112.035 80.0498 112.17 80.3135 112.439C80.5771 112.703 80.709 113.028 80.709 113.415C80.709 113.802 80.5771 114.13 80.3135 114.399C80.0498 114.663 79.7158 114.795 79.3115 114.795ZM79.3115 108.273C78.9189 108.273 78.5879 108.142 78.3184 107.878C78.0547 107.608 77.9229 107.28 77.9229 106.894C77.9229 106.507 78.0547 106.182 78.3184 105.918C78.5879 105.648 78.9189 105.514 79.3115 105.514C79.7158 105.514 80.0498 105.648 80.3135 105.918C80.5771 106.182 80.709 106.507 80.709 106.894C80.709 107.28 80.5771 107.608 80.3135 107.878C80.0498 108.142 79.7158 108.273 79.3115 108.273ZM88.9189 116.5V114.065H82.7139V112.211C83.042 111.637 83.376 111.065 83.7158 110.497C84.0557 109.923 84.3984 109.352 84.7441 108.783C85.0957 108.209 85.4443 107.644 85.79 107.087C86.1416 106.524 86.4902 105.971 86.8359 105.426C87.1875 104.881 87.5361 104.345 87.8818 103.817H91.0811V112.193H92.7949V114.065H91.0811V116.5H88.9189ZM84.8145 112.246H88.9541V105.628H88.8311C88.5674 106.026 88.2979 106.437 88.0225 106.858C87.7529 107.28 87.4805 107.711 87.2051 108.15C86.9297 108.59 86.6543 109.032 86.3789 109.478C86.1094 109.923 85.8428 110.368 85.5791 110.813C85.3154 111.253 85.0605 111.689 84.8145 112.123V112.246ZM97.5332 116.5V106.05H97.3838L94.2285 108.273V106.146L97.542 103.817H99.792V116.5H97.5332Z" fill="white"/>
<path fill-rule="evenodd" clip-rule="evenodd" d="M338.224 102.125H336.883C336.142 102.125 335.541 102.704 335.541 103.419V114.631C335.541 115.346 336.142 115.925 336.883 115.925H338.224C338.965 115.925 339.566 115.346 339.566 114.631V103.419C339.566 102.704 338.965 102.125 338.224 102.125ZM330.569 105.144H331.911C332.652 105.144 333.252 105.723 333.252 106.438V114.631C333.252 115.346 332.652 115.925 331.911 115.925H330.569C329.828 115.925 329.227 115.346 329.227 114.631V106.438C329.227 105.723 329.828 105.144 330.569 105.144ZM325.597 108.162H324.255C323.514 108.162 322.914 108.742 322.914 109.456V114.631C322.914 115.346 323.514 115.925 324.255 115.925H325.597C326.338 115.925 326.939 115.346 326.939 114.631V109.456C326.939 108.742 326.338 108.162 325.597 108.162ZM319.283 110.75H317.942C317.201 110.75 316.6 111.329 316.6 112.044V114.631C316.6 115.346 317.201 115.925 317.942 115.925H319.283C320.024 115.925 320.625 115.346 320.625 114.631V112.044C320.625 111.329 320.024 110.75 319.283 110.75Z" fill="white"/>
<path fill-rule="evenodd" clip-rule="evenodd" d="M356.342 104.823C359.178 104.823 361.906 105.939 363.962 107.941C364.117 108.095 364.364 108.093 364.517 107.936L365.997 106.407C366.074 106.327 366.117 106.219 366.116 106.107C366.116 105.995 366.071 105.888 365.993 105.809C360.597 100.514 352.085 100.514 346.689 105.809C346.611 105.888 346.567 105.995 346.566 106.107C346.565 106.219 346.608 106.327 346.686 106.407L348.166 107.936C348.318 108.093 348.566 108.095 348.72 107.941C350.776 105.939 353.505 104.823 356.342 104.823ZM356.342 109.799C357.9 109.798 359.403 110.392 360.558 111.463C360.715 111.615 360.961 111.612 361.113 111.456L362.591 109.926C362.669 109.846 362.712 109.737 362.711 109.624C362.71 109.511 362.665 109.403 362.585 109.324C359.067 105.973 353.619 105.973 350.101 109.324C350.022 109.403 349.976 109.511 349.975 109.624C349.974 109.737 350.018 109.846 350.096 109.926L351.573 111.456C351.726 111.612 351.972 111.615 352.128 111.463C353.283 110.392 354.784 109.799 356.342 109.799ZM359.303 113.147C359.305 113.26 359.261 113.369 359.182 113.449L356.625 116.091C356.55 116.169 356.448 116.212 356.342 116.212C356.235 116.212 356.133 116.169 356.058 116.091L353.501 113.449C353.422 113.369 353.378 113.26 353.381 113.146C353.383 113.033 353.431 112.926 353.513 112.85C355.146 111.435 357.537 111.435 359.17 112.85C359.252 112.926 359.3 113.033 359.303 113.147Z" fill="white"/>
<rect opacity="0.4" x="373.691" y="102.125" width="27.6" height="13.8" rx="4.025" stroke="white" stroke-width="1.15"/>
<path opacity="0.5" d="M403.016 106.725V111.325C403.943 110.935 404.546 110.029 404.546 109.025C404.546 108.021 403.943 107.115 403.016 106.725Z" fill="white"/>
<rect x="375.416" y="103.85" width="19.55" height="10.35" rx="2.3" fill="white"/>
<defs>
<linearGradient id="paint0_linear_115_427" x1="223.5" y1="1.5" x2="223.5" y2="143.5" gradientUnits="userSpaceOnUse">
<stop offset="0.494792" stop-color="white"/>
<stop offset="0.494892"/>
</linearGradient>
</defs>
</svg>
